{"title":"DOMENICA-MONO ESI HAMOGELAS video clip 2009 DVDrip","uid":5243317,"size":68096676,"categoryP":"video","categoryS":"music_videos","magnet":"?xt=urn:btih:14e8e5df16d2d0f1e86016e1f947162d950988e0&amp;dn=DOMENICA-MONO+ESI+HAMOGELAS+video+clip+2009+DVDrip&amp;tr=udp%3A%2F%2Ftracker.openbittorrent.com%3A80&amp;tr=udp%3A%2F%2Fopen.demonii.com%3A1337&amp;tr=udp%3A%2F%2Ftracker.coppersurfer.tk%3A6969&amp;tr=udp%3A%2F%2Fexodus.desync.com%3A6969","seeders":0,"leechers":1,"uploader":"TRIP1111","files":1,"time":1261872603,"description":"DOMENICA-MONO ESI HAMOGELAS video clip 2009 DVDrip\n\nthe new video clip from Greek Rock band DOMENICA\n\nDirected by Zerosinapsi\n\n\n\n\nGeneral\nComplete name                    : F:ÃŽÂ¼Torrent 1.7.6completed downloadsMY UPLOADSMONO ESI HAMOGELAS.avi\nFormat                           : AVI\nFormat/Info                      : Audio Video Interleave\nFile size                        : 64.9 MiB\nDuration                         : 3mn 10s\nOverall bit rate                 : 2 860 Kbps\nWriting application              : Lavf52.0.0\n\nVideo\nFormat                           : MPEG-4 Visual\nFormat profile                   : Simple Streaming Video@L1\nFormat settings, BVOP            : Yes\nFormat settings, QPel            : No\nFormat settings, GMC             : No warppoints\nFormat settings, Matrix          : Default\nCodec ID                         : DX50\nCodec ID/Hint                    : DivX 5\nDuration                         : 3mn 10s\nBit rate                         : 2 720 Kbps\nWidth                            : 720 pixels\nHeight                           : 576 pixels\nDisplay aspect ratio             : 4/3\nFrame rate                       : 25.000 fps\nStandard                         : PAL\nResolution                       : 24 bits\nColorimetry                      : 4:2:0\nScan type                        : Progressive\nBits/(Pixel*Frame)               : 0.262\nStream size                      : 61.7 MiB (95%)\nWriting library                  : Lavc51.48.0\n\nAudio\nFormat                           : MPEG Audio\nFormat version                   : Version 1\nFormat profile                   : Layer 3\nCodec ID                         : 55\nCodec ID/Hint                    : MP3\nDuration                         : 3mn 10s\nBit rate mode                    : Constant\nBit rate                         : 128 Kbps\nChannel(s)                       : 2 channels\nSampling rate                    : 44.1 KHz\nResolution                       : 16 bits\nStream size                      : 2.91 MiB (4%)\nAlignment                        : Aligned on interleaves\nInterleave, duration             : 26 ms (0.65 video frame)\nWriting library                  : LAME3.96.1\n\n","torrent":{"xt":"urn:btih:14e8e5df16d2d0f1e86016e1f947162d950988e0","amp;dn":"DOMENICA-MONO+ESI+HAMOGELAS+video+clip+2009+DVDrip","amp;tr":["udp%3A%2F%2Ftracker.openbittorrent.com%3A80","udp%3A%2F%2Fopen.demonii.com%3A1337","udp%3A%2F%2Ftracker.coppersurfer.tk%3A6969","udp%3A%2F%2Fexodus.desync.com%3A6969"],"infoHash":"14e8e5df16d2d0f1e86016e1f947162d950988e0","infoHashBuffer":{"type":"Buffer","data":[20,232,229,223,22,210,208,241,232,96,22,225,249,71,22,45,149,9,136,224]},"announce":[],"urlList":[]}}